<?xml version="1.0" encoding="utf-8"?>
<svg version="1.1" id="Ebene_1" xmlns="http://www.w3.org/2000/svg" xmlns:xlink="http://www.w3.org/1999/xlink" x="0px" y="0px"
	 viewBox="0 0 320 94" style="enable-background:new 0 0 320 94;" xml:space="preserve">
<style type="text/css">
	.st0{fill:#AECF82;}
	.st1{fill:#FFFFFF;}
	.st2{fill:#999999;}
</style>
<g>
	<path class="st0" d="M115.021,38.689c0,3.001-0.388,5.753-1.163,8.253c-0.776,2.502-1.889,4.652-3.339,6.453
		c-1.452,1.801-3.264,3.202-5.44,4.202c-2.175,1-4.64,1.501-7.39,1.501c-1.852,0-3.552-0.225-5.102-0.675
		c-1.551-0.45-2.827-0.95-3.827-1.501v15.231h-9.078V20.306c1.85-0.499,4.127-0.975,6.827-1.426c2.702-0.45,5.553-0.675,8.554-0.675
		c3.101,0,5.877,0.476,8.328,1.426c2.45,0.951,4.539,2.314,6.265,4.089c1.726,1.776,3.05,3.927,3.976,6.452
		C114.558,32.699,115.021,35.537,115.021,38.689z M105.718,38.839c0-4.052-0.914-7.203-2.739-9.454
		c-1.827-2.251-4.764-3.376-8.816-3.376c-0.851,0-1.739,0.037-2.663,0.112c-0.926,0.075-1.838,0.238-2.739,0.488v22.434
		c0.799,0.551,1.863,1.063,3.189,1.538c1.325,0.476,2.739,0.713,4.24,0.713c3.301,0,5.714-1.125,7.24-3.376
		C104.954,45.667,105.718,42.64,105.718,38.839z"/>
	<path class="st1" d="M30.763,25.408c-1.001,1.05-2.314,2.526-3.939,4.427c-1.626,1.901-3.365,4.014-5.215,6.34
		c-1.851,2.326-3.714,4.753-5.59,7.278c-1.876,2.526-3.564,4.94-5.065,7.24h20.259v7.578H0v-5.627c1.1-2,2.476-4.176,4.127-6.528
		c1.651-2.351,3.351-4.714,5.102-7.09c1.75-2.375,3.489-4.639,5.214-6.79c1.726-2.15,3.264-4.026,4.615-5.627H0.976v-7.578h29.787
		V25.408z M52.671,18.055c3.001,0,5.527,0.375,7.578,1.125c2.05,0.75,3.688,1.801,4.914,3.151c1.225,1.35,2.101,2.989,2.626,4.914
		c0.525,1.926,0.787,4.04,0.787,6.34v23.784c-1.401,0.3-3.514,0.664-6.339,1.088c-2.826,0.424-6.015,0.638-9.566,0.638
		c-2.352,0-4.502-0.225-6.453-0.675s-3.615-1.175-4.989-2.176c-1.376-1-2.451-2.3-3.227-3.901c-0.776-1.6-1.163-3.576-1.163-5.927
		c0-2.251,0.437-4.152,1.313-5.702c0.875-1.55,2.063-2.814,3.564-3.789c1.501-0.975,3.238-1.675,5.215-2.101
		c1.975-0.424,4.039-0.638,6.19-0.638c1,0,2.05,0.063,3.151,0.188c1.1,0.126,2.275,0.338,3.527,0.638v-1.501
		c0-1.05-0.126-2.051-0.375-3.001c-0.251-0.95-0.688-1.788-1.313-2.514c-0.626-0.724-1.452-1.287-2.476-1.688
		c-1.026-0.4-2.314-0.6-3.864-0.6c-2.101,0-4.027,0.15-5.777,0.45c-1.752,0.3-3.177,0.651-4.277,1.05l-1.125-7.353
		c1.15-0.4,2.825-0.799,5.027-1.2C47.819,18.256,50.169,18.055,52.671,18.055z M53.422,51.894c2.801,0,4.926-0.15,6.378-0.45V41.39
		c-0.501-0.15-1.226-0.3-2.176-0.45c-0.951-0.15-2.001-0.225-3.151-0.225c-1.001,0-2.014,0.075-3.039,0.225
		c-1.026,0.15-1.951,0.426-2.776,0.825c-0.825,0.401-1.489,0.964-1.988,1.688c-0.501,0.726-0.75,1.639-0.75,2.739
		c0,2.151,0.675,3.639,2.026,4.464C49.295,51.481,51.12,51.894,53.422,51.894z M138.055,59.022
		c-2.702-0.051-4.941-0.351-6.715-0.901c-1.776-0.55-3.189-1.338-4.24-2.363c-1.05-1.025-1.789-2.3-2.214-3.827
		c-0.425-1.525-0.637-3.264-0.637-5.214V1.548l9.078-1.501V44.99c0,1.101,0.087,2.026,0.263,2.776
		c0.174,0.75,0.487,1.388,0.938,1.913c0.45,0.525,1.062,0.926,1.838,1.201c0.774,0.276,1.763,0.488,2.963,0.638L138.055,59.022z
		 M156.813,7.551c0,1.701-0.551,3.052-1.651,4.052c-1.101,1.001-2.401,1.501-3.902,1.501c-1.551,0-2.877-0.499-3.976-1.501
		c-1.101-1-1.651-2.351-1.651-4.052c0-1.75,0.55-3.125,1.651-4.127c1.1-1,2.425-1.501,3.976-1.501c1.501,0,2.801,0.501,3.902,1.501
		C156.262,4.425,156.813,5.801,156.813,7.551z M155.837,58.272h-9.079V19.031h9.079V58.272z M180.445,18.055
		c3.001,0,5.527,0.375,7.579,1.125c2.05,0.75,3.688,1.801,4.914,3.151c1.225,1.35,2.101,2.989,2.626,4.914
		c0.525,1.926,0.788,4.04,0.788,6.34v23.784c-1.401,0.3-3.515,0.664-6.34,1.088c-2.826,0.424-6.015,0.638-9.566,0.638
		c-2.351,0-4.502-0.225-6.452-0.675c-1.951-0.45-3.615-1.175-4.99-2.176c-1.376-1-2.451-2.3-3.226-3.901
		c-0.776-1.6-1.163-3.576-1.163-5.927c0-2.251,0.437-4.152,1.313-5.702c0.875-1.55,2.063-2.814,3.564-3.789
		c1.501-0.975,3.238-1.675,5.215-2.101c1.975-0.424,4.039-0.638,6.19-0.638c1,0,2.05,0.063,3.151,0.188
		c1.099,0.126,2.275,0.338,3.526,0.638v-1.501c0-1.05-0.125-2.051-0.375-3.001c-0.251-0.95-0.688-1.788-1.313-2.514
		c-0.626-0.724-1.451-1.287-2.476-1.688c-1.026-0.4-2.314-0.6-3.864-0.6c-2.101,0-4.027,0.15-5.777,0.45
		c-1.752,0.3-3.177,0.651-4.277,1.05l-1.125-7.353c1.15-0.4,2.825-0.799,5.027-1.2C175.593,18.256,177.944,18.055,180.445,18.055z
		 M181.196,51.894c2.801,0,4.927-0.15,6.378-0.45V41.39c-0.5-0.15-1.226-0.3-2.175-0.45c-0.951-0.15-2.001-0.225-3.151-0.225
		c-1.001,0-2.014,0.075-3.039,0.225c-1.026,0.15-1.951,0.426-2.776,0.825c-0.825,0.401-1.489,0.964-1.989,1.688
		c-0.5,0.726-0.75,1.639-0.75,2.739c0,2.151,0.676,3.639,2.026,4.464S178.895,51.894,181.196,51.894z M207.456,20.306
		c1.75-0.499,4.026-0.975,6.827-1.426c2.801-0.45,5.902-0.675,9.304-0.675c3.201,0,5.877,0.439,8.028,1.313
		c2.15,0.876,3.864,2.101,5.139,3.676s2.176,3.477,2.701,5.702c0.525,2.226,0.788,4.665,0.788,7.315V58.27h-9.079V37.638
		c0-2.101-0.138-3.889-0.413-5.365c-0.276-1.475-0.725-2.676-1.35-3.602c-0.626-0.925-1.476-1.6-2.551-2.026
		c-1.076-0.425-2.389-0.638-3.939-0.638c-1.151,0-2.351,0.075-3.601,0.225c-1.251,0.15-2.176,0.276-2.776,0.375V58.27h-9.078
		L207.456,20.306L207.456,20.306z M249.172,38.689c0-2.9,0.451-5.614,1.35-8.141c0.901-2.525,2.188-4.714,3.864-6.565
		c1.675-1.85,3.714-3.301,6.115-4.352c2.4-1.05,5.102-1.576,8.103-1.576c3.701,0,7.203,0.675,10.504,2.026l-1.951,7.428
		c-1.05-0.45-2.239-0.825-3.564-1.125c-1.326-0.3-2.738-0.45-4.239-0.45c-3.552,0-6.254,1.114-8.103,3.339
		c-1.852,2.226-2.776,5.365-2.776,9.416c0,3.902,0.874,6.991,2.626,9.266c1.75,2.277,4.701,3.414,8.853,3.414
		c1.55,0,3.076-0.15,4.577-0.45s2.801-0.676,3.902-1.125l1.276,7.503c-1.001,0.5-2.513,0.951-4.539,1.35
		c-2.026,0.4-4.115,0.6-6.266,0.6c-3.351,0-6.265-0.513-8.741-1.538s-4.527-2.45-6.153-4.277c-1.626-1.825-2.839-4.001-3.639-6.527
		C249.572,44.379,249.172,41.641,249.172,38.689z M284.585,38.839c0-3.451,0.512-6.477,1.538-9.079
		c1.025-2.6,2.389-4.765,4.089-6.49c1.7-1.726,3.651-3.026,5.852-3.902c2.201-0.875,4.452-1.313,6.753-1.313
		c5.402,0,9.616,1.676,12.643,5.027c3.025,3.352,4.539,8.354,4.539,15.006c0,0.5-0.013,1.063-0.037,1.688
		c-0.026,0.626-0.064,1.189-0.113,1.688h-25.886c0.25,3.151,1.362,5.59,3.339,7.315c1.975,1.726,4.84,2.588,8.591,2.588
		c2.2,0,4.213-0.199,6.04-0.6c1.825-0.4,3.264-0.825,4.314-1.276l1.2,7.428c-0.5,0.251-1.188,0.513-2.063,0.788
		c-0.876,0.276-1.876,0.525-3.001,0.75s-2.339,0.413-3.639,0.563c-1.301,0.15-2.626,0.225-3.976,0.225
		c-3.452,0-6.453-0.513-9.004-1.538c-2.551-1.025-4.652-2.45-6.303-4.277c-1.651-1.825-2.877-3.976-3.676-6.452
		C284.986,44.503,284.585,41.79,284.585,38.839z M310.922,34.787c0-1.25-0.176-2.438-0.525-3.564
		c-0.351-1.125-0.863-2.101-1.538-2.926c-0.676-0.825-1.501-1.475-2.477-1.951c-0.975-0.475-2.138-0.713-3.488-0.713
		c-1.401,0-2.626,0.263-3.677,0.788c-1.05,0.525-1.939,1.213-2.663,2.063c-0.725,0.851-1.288,1.827-1.688,2.926
		c-0.401,1.101-0.676,2.226-0.825,3.376L310.922,34.787L310.922,34.787z"/>
</g>
<g>
	<path class="st2" d="M124.258,93.071V72.277h13.353v3.21h-9.572v5.131h8.521v3.151h-8.521v6.091h10.292v3.21H124.258z"/>
	<path class="st2" d="M145.045,93.071c-1.004-2.06-2.034-4.426-3.088-7.097c-1.055-2.67-2.014-5.536-2.877-8.597h3.872
		c0.221,0.881,0.477,1.826,0.768,2.836c0.291,1.01,0.603,2.02,0.934,3.03c0.331,1.011,0.673,1.991,1.025,2.94
		c0.352,0.95,0.678,1.806,0.979,2.566c0.301-0.76,0.623-1.615,0.964-2.566c0.342-0.95,0.678-1.929,1.01-2.94
		c0.331-1.01,0.647-2.02,0.949-3.03c0.301-1.01,0.562-1.955,0.784-2.836h3.752c-0.864,3.06-1.823,5.926-2.878,8.597
		c-1.055,2.67-2.084,5.036-3.088,7.097H145.045z"/>
	<path class="st2" d="M155.401,85.299c0-1.38,0.205-2.59,0.615-3.631c0.41-1.04,0.955-1.906,1.635-2.596
		c0.68-0.69,1.46-1.21,2.34-1.559c0.88-0.35,1.78-0.526,2.7-0.526c2.161,0,3.845,0.67,5.056,2.011c1.21,1.34,1.815,3.34,1.815,6.001
		c0,0.201-0.005,0.426-0.015,0.675c-0.011,0.251-0.025,0.476-0.045,0.676h-10.352c0.1,1.26,0.545,2.235,1.335,2.926
		c0.79,0.69,1.935,1.035,3.436,1.035c0.88,0,1.685-0.08,2.416-0.24c0.73-0.16,1.305-0.33,1.725-0.51l0.48,2.971
		c-0.2,0.1-0.475,0.205-0.825,0.315c-0.35,0.11-0.75,0.21-1.2,0.3c-0.45,0.09-0.935,0.165-1.456,0.224
		c-0.52,0.06-1.05,0.091-1.59,0.091c-1.38,0-2.58-0.206-3.601-0.615c-1.021-0.409-1.861-0.98-2.52-1.711
		c-0.66-0.73-1.151-1.59-1.471-2.58C155.561,87.564,155.401,86.479,155.401,85.299z M165.933,83.678c0-0.499-0.071-0.975-0.21-1.425
		c-0.14-0.451-0.345-0.841-0.615-1.17c-0.27-0.331-0.6-0.59-0.99-0.78c-0.39-0.19-0.855-0.285-1.395-0.285
		c-0.56,0-1.05,0.104-1.471,0.315c-0.42,0.21-0.775,0.485-1.065,0.825c-0.29,0.341-0.516,0.731-0.675,1.17
		c-0.16,0.44-0.27,0.89-0.33,1.35H165.933z"/>
	<path class="st2" d="M173.074,77.887c0.7-0.2,1.61-0.39,2.731-0.57c1.12-0.18,2.36-0.27,3.721-0.27c1.28,0,2.35,0.175,3.21,0.525
		c0.86,0.351,1.545,0.841,2.055,1.471s0.87,1.39,1.08,2.28c0.21,0.89,0.315,1.865,0.315,2.926v8.822h-3.631v-8.251
		c0-0.841-0.055-1.556-0.165-2.145s-0.29-1.07-0.54-1.44c-0.25-0.37-0.591-0.64-1.021-0.81c-0.43-0.169-0.956-0.255-1.575-0.255
		c-0.461,0-0.94,0.029-1.44,0.09c-0.5,0.06-0.87,0.11-1.11,0.15v12.662h-3.631V77.887z"/>
	<path class="st2" d="M190.123,73.237l3.631-0.6v4.741h5.581v3.031h-5.581v6.391c0,1.26,0.2,2.161,0.6,2.7
		c0.4,0.54,1.08,0.81,2.04,0.81c0.66,0,1.245-0.07,1.755-0.21s0.915-0.27,1.215-0.39l0.6,2.88c-0.42,0.18-0.971,0.365-1.651,0.556
		c-0.68,0.19-1.48,0.285-2.4,0.285c-1.121,0-2.056-0.15-2.806-0.451c-0.75-0.299-1.346-0.734-1.786-1.305
		c-0.44-0.57-0.75-1.26-0.93-2.07c-0.18-0.81-0.27-1.735-0.27-2.775V73.237z"/>
	<path class="st2" d="M223.158,89.8v3.271h-13.142V72.277h3.781V89.8H223.158z"/>
	<path class="st2" d="M229.88,72.787c0,0.679-0.222,1.22-0.661,1.62c-0.44,0.4-0.96,0.6-1.56,0.6c-0.619,0-1.15-0.2-1.59-0.6
		c-0.44-0.4-0.661-0.94-0.661-1.62c0-0.701,0.222-1.25,0.661-1.651c0.44-0.399,0.971-0.6,1.59-0.6c0.601,0,1.121,0.201,1.56,0.6
		C229.658,71.537,229.88,72.087,229.88,72.787z M229.49,93.071h-3.632V77.377h3.632V93.071z"/>
	<path class="st2" d="M237.902,90.46c0.96,0,1.66-0.115,2.101-0.345c0.44-0.23,0.659-0.624,0.659-1.185
		c0-0.52-0.235-0.95-0.705-1.29c-0.47-0.34-1.245-0.71-2.325-1.111c-0.66-0.24-1.265-0.494-1.816-0.765
		c-0.55-0.27-1.025-0.585-1.425-0.945c-0.4-0.361-0.715-0.796-0.945-1.306c-0.231-0.51-0.345-1.135-0.345-1.875
		c0-1.44,0.529-2.575,1.591-3.405c1.059-0.83,2.5-1.245,4.32-1.245c0.92,0,1.8,0.085,2.641,0.255c0.84,0.169,1.47,0.335,1.89,0.494
		l-0.66,2.941c-0.4-0.18-0.91-0.345-1.53-0.495c-0.62-0.15-1.341-0.225-2.16-0.225c-0.741,0-1.341,0.125-1.8,0.375
		c-0.461,0.25-0.69,0.635-0.69,1.155c0,0.26,0.045,0.491,0.135,0.69c0.091,0.201,0.245,0.386,0.465,0.555
		c0.221,0.17,0.51,0.341,0.871,0.51c0.36,0.17,0.799,0.345,1.32,0.526c0.86,0.32,1.591,0.635,2.191,0.945
		c0.6,0.31,1.095,0.66,1.485,1.05c0.39,0.39,0.675,0.835,0.854,1.335c0.18,0.5,0.27,1.101,0.27,1.8c0,1.5-0.555,2.635-1.665,3.405
		c-1.111,0.77-2.696,1.156-4.756,1.156c-1.38,0-2.491-0.115-3.33-0.345c-0.841-0.23-1.43-0.415-1.771-0.555l0.631-3.031
		c0.539,0.221,1.185,0.43,1.935,0.63C236.086,90.36,236.942,90.46,237.902,90.46z"/>
	<path class="st2" d="M247.21,73.237l3.63-0.6v4.741h5.581v3.031h-5.581v6.391c0,1.26,0.201,2.161,0.601,2.7
		c0.4,0.54,1.08,0.81,2.04,0.81c0.66,0,1.245-0.07,1.755-0.21s0.915-0.27,1.215-0.39l0.6,2.88c-0.419,0.18-0.97,0.365-1.65,0.556
		c-0.68,0.19-1.481,0.285-2.4,0.285c-1.121,0-2.056-0.15-2.806-0.451c-0.75-0.299-1.345-0.734-1.786-1.305
		c-0.44-0.57-0.75-1.26-0.93-2.07c-0.179-0.81-0.269-1.735-0.269-2.775V73.237z"/>
	<path class="st2" d="M258.656,85.299c0-1.38,0.205-2.59,0.615-3.631c0.409-1.04,0.955-1.906,1.634-2.596
		c0.68-0.69,1.46-1.21,2.34-1.559s1.78-0.526,2.7-0.526c2.161,0,3.846,0.67,5.056,2.011c1.21,1.34,1.815,3.34,1.815,6.001
		c0,0.201-0.005,0.426-0.015,0.675c-0.01,0.251-0.026,0.476-0.045,0.676h-10.352c0.1,1.26,0.545,2.235,1.335,2.926
		c0.79,0.69,1.936,1.035,3.436,1.035c0.88,0,1.685-0.08,2.416-0.24c0.73-0.16,1.305-0.33,1.725-0.51l0.48,2.971
		c-0.2,0.1-0.475,0.205-0.825,0.315c-0.35,0.11-0.75,0.21-1.2,0.3c-0.45,0.09-0.935,0.165-1.455,0.224
		c-0.52,0.06-1.05,0.091-1.591,0.091c-1.38,0-2.58-0.206-3.601-0.615c-1.02-0.409-1.859-0.98-2.52-1.711
		c-0.66-0.73-1.151-1.59-1.471-2.58C258.816,87.564,258.656,86.479,258.656,85.299z M269.187,83.678c0-0.499-0.07-0.975-0.21-1.425
		c-0.14-0.451-0.345-0.841-0.615-1.17c-0.27-0.331-0.6-0.59-0.99-0.78c-0.39-0.19-0.855-0.285-1.396-0.285
		c-0.56,0-1.05,0.104-1.47,0.315c-0.42,0.21-0.776,0.485-1.066,0.825c-0.29,0.341-0.515,0.731-0.675,1.17
		c-0.16,0.44-0.27,0.89-0.33,1.35H269.187z"/>
	<path class="st2" d="M276.329,77.887c0.701-0.2,1.61-0.39,2.731-0.57c1.12-0.18,2.36-0.27,3.72-0.27c1.28,0,2.351,0.175,3.21,0.525
		c0.86,0.351,1.546,0.841,2.056,1.471s0.87,1.39,1.081,2.28c0.21,0.89,0.315,1.865,0.315,2.926v8.822h-3.631v-8.251
		c0-0.841-0.056-1.556-0.165-2.145c-0.111-0.59-0.29-1.07-0.54-1.44c-0.251-0.37-0.591-0.64-1.02-0.81
		c-0.43-0.169-0.956-0.255-1.576-0.255c-0.46,0-0.94,0.029-1.44,0.09c-0.5,0.06-0.87,0.11-1.11,0.15v12.662h-3.631V77.887z"/>
	<path class="st2" d="M292.754,85.299c0-1.38,0.205-2.59,0.615-3.631c0.409-1.04,0.955-1.906,1.634-2.596
		c0.68-0.69,1.461-1.21,2.341-1.559c0.88-0.35,1.78-0.526,2.7-0.526c2.161,0,3.846,0.67,5.056,2.011
		c1.21,1.34,1.815,3.34,1.815,6.001c0,0.201-0.005,0.426-0.015,0.675c-0.01,0.251-0.026,0.476-0.045,0.676h-10.352
		c0.1,1.26,0.545,2.235,1.335,2.926c0.79,0.69,1.936,1.035,3.436,1.035c0.88,0,1.685-0.08,2.416-0.24
		c0.73-0.16,1.305-0.33,1.725-0.51l0.48,2.971c-0.2,0.1-0.475,0.205-0.825,0.315c-0.35,0.11-0.75,0.21-1.2,0.3
		c-0.45,0.09-0.935,0.165-1.455,0.224c-0.52,0.06-1.05,0.091-1.591,0.091c-1.38,0-2.58-0.206-3.6-0.615s-1.86-0.98-2.52-1.711
		c-0.66-0.73-1.151-1.59-1.471-2.58C292.914,87.564,292.754,86.479,292.754,85.299z M303.286,83.678c0-0.499-0.07-0.975-0.21-1.425
		c-0.14-0.451-0.345-0.841-0.615-1.17c-0.27-0.331-0.6-0.59-0.99-0.78c-0.39-0.19-0.855-0.285-1.396-0.285
		c-0.56,0-1.05,0.104-1.47,0.315c-0.42,0.21-0.776,0.485-1.066,0.825c-0.29,0.341-0.515,0.731-0.675,1.17
		c-0.16,0.44-0.27,0.89-0.33,1.35H303.286z"/>
	<path class="st2" d="M319.369,80.648c-0.3-0.1-0.715-0.205-1.245-0.315c-0.53-0.11-1.146-0.165-1.845-0.165
		c-0.4,0-0.825,0.04-1.276,0.12c-0.45,0.08-0.765,0.149-0.945,0.21v12.572h-3.631V78.127c0.701-0.259,1.575-0.505,2.625-0.735
		c1.05-0.229,2.216-0.344,3.496-0.344c0.24,0,0.52,0.015,0.84,0.045c0.32,0.03,0.64,0.071,0.961,0.12
		c0.32,0.05,0.63,0.11,0.93,0.179c0.299,0.071,0.54,0.136,0.72,0.195L319.369,80.648z"/>
</g>
</svg>
