<?xml version="1.0" encoding="utf-8"?>
<svg version="1.1" id="Ebene_1" xmlns="http://www.w3.org/2000/svg" xmlns:xlink="http://www.w3.org/1999/xlink" x="0px" y="0px"
	 viewBox="0 0 320 72.2" style="enable-background:new 0 0 320 72.2;" xml:space="preserve">
<style type="text/css">
	.st0{fill:#AECF82;}
	.st1{fill:#FFFFFF;}
</style>
<g>
	<path class="st0" d="M115.021,38.689c0,3.001-0.388,5.753-1.163,8.253c-0.776,2.502-1.889,4.652-3.339,6.453
		c-1.452,1.801-3.264,3.202-5.44,4.202c-2.175,1-4.64,1.501-7.39,1.501c-1.852,0-3.552-0.225-5.102-0.675
		c-1.551-0.45-2.827-0.95-3.827-1.501v15.231h-9.078V20.306c1.85-0.499,4.127-0.975,6.827-1.426c2.702-0.45,5.553-0.675,8.554-0.675
		c3.101,0,5.877,0.476,8.328,1.426c2.45,0.951,4.539,2.314,6.265,4.089c1.726,1.776,3.05,3.927,3.976,6.452
		C114.558,32.699,115.021,35.537,115.021,38.689z M105.718,38.839c0-4.052-0.914-7.203-2.739-9.454
		c-1.827-2.251-4.764-3.376-8.816-3.376c-0.851,0-1.739,0.037-2.663,0.112c-0.926,0.075-1.838,0.238-2.739,0.488v22.434
		c0.799,0.551,1.863,1.063,3.189,1.538c1.325,0.476,2.739,0.713,4.24,0.713c3.301,0,5.714-1.125,7.24-3.376
		C104.954,45.667,105.718,42.64,105.718,38.839z"/>
	<path class="st1" d="M30.763,25.408c-1.001,1.05-2.314,2.526-3.939,4.427c-1.626,1.901-3.365,4.014-5.215,6.34
		c-1.851,2.326-3.714,4.753-5.59,7.278c-1.876,2.526-3.564,4.94-5.065,7.24h20.259v7.578H0v-5.627c1.1-2,2.476-4.176,4.127-6.528
		c1.651-2.351,3.351-4.714,5.102-7.09c1.75-2.375,3.489-4.639,5.214-6.79c1.726-2.15,3.264-4.026,4.615-5.627H0.976v-7.578h29.787
		V25.408z M52.671,18.055c3.001,0,5.527,0.375,7.578,1.125c2.05,0.75,3.688,1.801,4.914,3.151c1.225,1.35,2.101,2.989,2.626,4.914
		c0.525,1.926,0.787,4.04,0.787,6.34v23.784c-1.401,0.3-3.514,0.664-6.339,1.088c-2.826,0.424-6.015,0.638-9.566,0.638
		c-2.352,0-4.502-0.225-6.453-0.675s-3.615-1.175-4.989-2.176c-1.376-1-2.451-2.3-3.227-3.901c-0.776-1.6-1.163-3.576-1.163-5.927
		c0-2.251,0.437-4.152,1.313-5.702c0.875-1.55,2.063-2.814,3.564-3.789c1.501-0.975,3.238-1.675,5.215-2.101
		c1.975-0.424,4.039-0.638,6.19-0.638c1,0,2.05,0.063,3.151,0.188c1.1,0.126,2.275,0.338,3.527,0.638v-1.501
		c0-1.05-0.126-2.051-0.375-3.001c-0.251-0.95-0.688-1.788-1.313-2.514c-0.626-0.724-1.452-1.287-2.476-1.688
		c-1.026-0.4-2.314-0.6-3.864-0.6c-2.101,0-4.027,0.15-5.777,0.45c-1.752,0.3-3.177,0.651-4.277,1.05l-1.125-7.353
		c1.15-0.4,2.825-0.799,5.027-1.2C47.819,18.256,50.169,18.055,52.671,18.055z M53.422,51.894c2.801,0,4.926-0.15,6.378-0.45V41.39
		c-0.501-0.15-1.226-0.3-2.176-0.45c-0.951-0.15-2.001-0.225-3.151-0.225c-1.001,0-2.014,0.075-3.039,0.225
		c-1.026,0.15-1.951,0.426-2.776,0.825c-0.825,0.401-1.489,0.964-1.988,1.688c-0.501,0.726-0.75,1.639-0.75,2.739
		c0,2.151,0.675,3.639,2.026,4.464C49.295,51.481,51.12,51.894,53.422,51.894z M138.055,59.022
		c-2.702-0.051-4.941-0.351-6.715-0.901c-1.776-0.55-3.189-1.338-4.24-2.363c-1.05-1.025-1.789-2.3-2.214-3.827
		c-0.425-1.525-0.637-3.264-0.637-5.214V1.548l9.078-1.501V44.99c0,1.101,0.087,2.026,0.263,2.776
		c0.174,0.75,0.487,1.388,0.938,1.913c0.45,0.525,1.062,0.926,1.838,1.201c0.774,0.276,1.763,0.488,2.963,0.638L138.055,59.022z
		 M156.813,7.551c0,1.701-0.551,3.052-1.651,4.052c-1.101,1.001-2.401,1.501-3.902,1.501c-1.551,0-2.877-0.499-3.976-1.501
		c-1.101-1-1.651-2.351-1.651-4.052c0-1.75,0.55-3.125,1.651-4.127c1.1-1,2.425-1.501,3.976-1.501c1.501,0,2.801,0.501,3.902,1.501
		C156.262,4.425,156.813,5.801,156.813,7.551z M155.837,58.272h-9.079V19.031h9.079V58.272z M180.445,18.055
		c3.001,0,5.527,0.375,7.579,1.125c2.05,0.75,3.688,1.801,4.914,3.151c1.225,1.35,2.101,2.989,2.626,4.914
		c0.525,1.926,0.788,4.04,0.788,6.34v23.784c-1.401,0.3-3.515,0.664-6.34,1.088c-2.826,0.424-6.015,0.638-9.566,0.638
		c-2.351,0-4.502-0.225-6.452-0.675c-1.951-0.45-3.615-1.175-4.99-2.176c-1.376-1-2.451-2.3-3.226-3.901
		c-0.776-1.6-1.163-3.576-1.163-5.927c0-2.251,0.437-4.152,1.313-5.702c0.875-1.55,2.063-2.814,3.564-3.789
		c1.501-0.975,3.238-1.675,5.215-2.101c1.975-0.424,4.039-0.638,6.19-0.638c1,0,2.05,0.063,3.151,0.188
		c1.099,0.126,2.275,0.338,3.526,0.638v-1.501c0-1.05-0.125-2.051-0.375-3.001c-0.251-0.95-0.688-1.788-1.313-2.514
		c-0.626-0.724-1.451-1.287-2.476-1.688c-1.026-0.4-2.314-0.6-3.864-0.6c-2.101,0-4.027,0.15-5.777,0.45
		c-1.752,0.3-3.177,0.651-4.277,1.05l-1.125-7.353c1.15-0.4,2.825-0.799,5.027-1.2C175.593,18.256,177.944,18.055,180.445,18.055z
		 M181.196,51.894c2.801,0,4.927-0.15,6.378-0.45V41.39c-0.5-0.15-1.226-0.3-2.175-0.45c-0.951-0.15-2.001-0.225-3.151-0.225
		c-1.001,0-2.014,0.075-3.039,0.225c-1.026,0.15-1.951,0.426-2.776,0.825c-0.825,0.401-1.489,0.964-1.989,1.688
		c-0.5,0.726-0.75,1.639-0.75,2.739c0,2.151,0.676,3.639,2.026,4.464S178.895,51.894,181.196,51.894z M207.456,20.306
		c1.75-0.499,4.026-0.975,6.827-1.426c2.801-0.45,5.902-0.675,9.304-0.675c3.201,0,5.877,0.439,8.028,1.313
		c2.15,0.876,3.864,2.101,5.139,3.676s2.176,3.477,2.701,5.702c0.525,2.226,0.788,4.665,0.788,7.315V58.27h-9.079V37.638
		c0-2.101-0.138-3.889-0.413-5.365c-0.276-1.475-0.725-2.676-1.35-3.602c-0.626-0.925-1.476-1.6-2.551-2.026
		c-1.076-0.425-2.389-0.638-3.939-0.638c-1.151,0-2.351,0.075-3.601,0.225c-1.251,0.15-2.176,0.276-2.776,0.375V58.27h-9.078
		L207.456,20.306L207.456,20.306z M249.172,38.689c0-2.9,0.451-5.614,1.35-8.141c0.901-2.525,2.188-4.714,3.864-6.565
		c1.675-1.85,3.714-3.301,6.115-4.352c2.4-1.05,5.102-1.576,8.103-1.576c3.701,0,7.203,0.675,10.504,2.026l-1.951,7.428
		c-1.05-0.45-2.239-0.825-3.564-1.125c-1.326-0.3-2.738-0.45-4.239-0.45c-3.552,0-6.254,1.114-8.103,3.339
		c-1.852,2.226-2.776,5.365-2.776,9.416c0,3.902,0.874,6.991,2.626,9.266c1.75,2.277,4.701,3.414,8.853,3.414
		c1.55,0,3.076-0.15,4.577-0.45s2.801-0.676,3.902-1.125l1.276,7.503c-1.001,0.5-2.513,0.951-4.539,1.35
		c-2.026,0.4-4.115,0.6-6.266,0.6c-3.351,0-6.265-0.513-8.741-1.538s-4.527-2.45-6.153-4.277c-1.626-1.825-2.839-4.001-3.639-6.527
		C249.572,44.379,249.172,41.641,249.172,38.689z M284.585,38.839c0-3.451,0.512-6.477,1.538-9.079
		c1.025-2.6,2.389-4.765,4.089-6.49c1.7-1.726,3.651-3.026,5.852-3.902c2.201-0.875,4.452-1.313,6.753-1.313
		c5.402,0,9.616,1.676,12.643,5.027c3.025,3.352,4.539,8.354,4.539,15.006c0,0.5-0.013,1.063-0.037,1.688
		c-0.026,0.626-0.064,1.189-0.113,1.688h-25.886c0.25,3.151,1.362,5.59,3.339,7.315c1.975,1.726,4.84,2.588,8.591,2.588
		c2.2,0,4.213-0.199,6.04-0.6c1.825-0.4,3.264-0.825,4.314-1.276l1.2,7.428c-0.5,0.251-1.188,0.513-2.063,0.788
		c-0.876,0.276-1.876,0.525-3.001,0.75s-2.339,0.413-3.639,0.563c-1.301,0.15-2.626,0.225-3.976,0.225
		c-3.452,0-6.453-0.513-9.004-1.538c-2.551-1.025-4.652-2.45-6.303-4.277c-1.651-1.825-2.877-3.976-3.676-6.452
		C284.986,44.503,284.585,41.79,284.585,38.839z M310.922,34.787c0-1.25-0.176-2.438-0.525-3.564
		c-0.351-1.125-0.863-2.101-1.538-2.926c-0.676-0.825-1.501-1.475-2.477-1.951c-0.975-0.475-2.138-0.713-3.488-0.713
		c-1.401,0-2.626,0.263-3.677,0.788c-1.05,0.525-1.939,1.213-2.663,2.063c-0.725,0.851-1.288,1.827-1.688,2.926
		c-0.401,1.101-0.676,2.226-0.825,3.376L310.922,34.787L310.922,34.787z"/>
</g>
</svg>
